<?xml version="1.0" encoding="UTF-8" standalone="no"?><svg xmlns="http://www.w3.org/2000/svg" xmlns:xlink="http://www.w3.org/1999/xlink" fill="#000000" height="746.9" preserveAspectRatio="xMidYMid meet" version="1" viewBox="42.0 31.1 622.8 746.9" width="622.8" zoomAndPan="magnify"><g id="change1_1"><path d="M654.31,333.11l-57.89,309.19h-0.64c-7.87,61.8-85.49,112.46-187.72,125.96c-17.56,2.34-35.86,3.57-54.65,3.57 c-46.69,0-90.3-7.58-127.34-20.73c-64.61-22.91-109.19-62.75-115.05-108.8h-0.64L52.48,333.11H654.31z" fill="#750c48"/></g><g id="change1_2"><path d="M353.41,778c-45.81,0-90.56-7.29-129.4-21.09c-67.28-23.85-111.4-65.24-118.72-111.12 c-0.47-0.69-0.81-1.49-0.98-2.35L46.43,334.25c-0.34-1.8,0.15-3.66,1.32-5.07c1.17-1.41,2.91-2.23,4.74-2.23h601.83 c1.83,0,3.57,0.82,4.74,2.23c1.17,1.41,1.65,3.27,1.31,5.07l-57.89,309.19c-0.16,0.86-0.5,1.66-0.97,2.35 c-4.89,30.93-25.86,59.49-60.79,82.74c-34.86,23.21-80.46,39.06-131.86,45.85C390.83,776.78,372.17,778,353.41,778z M115.95,638.62 c0.62,0.83,1.04,1.82,1.18,2.91c5.38,42.24,46.88,81.03,111,103.77c37.54,13.33,80.86,20.38,125.28,20.38 c18.22,0,36.33-1.18,53.84-3.51c100.05-13.21,175.06-62.81,182.42-120.63c0.14-1.09,0.56-2.08,1.18-2.91l56.04-299.34H59.91 L115.95,638.62z" fill="#750c48"/></g><g id="change2_1"><ellipse cx="353.4" cy="303.53" fill="#eaa2d6" rx="305.24" ry="175.68"/></g><g id="change1_3"><path d="M353.4,485.37c-82.59,0-160.34-18.57-218.91-52.28C74.85,398.77,42,352.75,42,303.53s32.85-95.24,92.49-129.57 c58.57-33.71,136.32-52.28,218.91-52.28c82.6,0,160.34,18.57,218.91,52.28c59.64,34.33,92.49,80.34,92.49,129.57 s-32.85,95.24-92.49,129.57C513.74,466.81,436,485.37,353.4,485.37z M353.4,134.01c-164.91,0-299.08,76.04-299.08,169.52 S188.49,473.05,353.4,473.05c164.91,0,299.08-76.04,299.08-169.52S518.32,134.01,353.4,134.01z" fill="#750c48"/></g><g id="change3_1"><path d="M629.7,295.15c-6.62,83.48-150.31,154.3-275.19,154.08c-106.49-0.19-257.67-51.69-275.19-154.08 c-8.26-48.3,12.45-112.45,56.8-143.22c44.63-30.96,89.52-11.71,144.89-50.38c29.58-20.65,46.39-46.83,55.47-63.96 c36.22,5.75,91.48,19.6,147.93,55.97c53.04,34.17,82.89,72.61,91.27,83.82C602.62,213.4,632.96,253.99,629.7,295.15z" fill="#e124a7"/></g><g id="change1_4"><path d="M355.08,455.39c-0.2,0-0.38,0-0.58,0c-57.86-0.1-122.77-14.8-173.63-39.33 c-43.32-20.89-97.15-58.64-107.62-119.88c-8.01-46.86,10.07-115.12,59.36-149.33c22.21-15.41,43.95-18.94,66.97-22.67 c24.5-3.97,49.82-8.08,77.91-27.69c21.9-15.29,39.92-36.08,53.56-61.8c1.23-2.33,3.81-3.61,6.41-3.2 c54.62,8.67,105.19,27.8,150.3,56.87c48.84,31.47,79.15,66.96,92.87,85.31c27.49,36.79,58.66,78.48,55.21,121.95 c-3.29,41.47-37.55,81.74-96.48,113.37C485.24,438.07,416.39,455.39,355.08,455.39z M339.82,44.38 c-14.3,25.67-32.88,46.59-55.27,62.22c-30.39,21.22-58.33,25.75-82.99,29.75c-21.6,3.5-42,6.81-61.92,20.63 c-43.47,30.16-61.72,93.4-54.24,137.12c17.33,101.32,170.83,148.78,269.12,148.96c0.18,0,0.37,0,0.55,0 c116.42,0.01,261.95-66.07,268.48-148.41l0,0c3.08-38.84-26.6-78.56-52.79-113.6c-13.22-17.69-42.46-51.91-89.67-82.33 C438.6,71.36,391.09,53.08,339.82,44.38z" fill="#750c48"/></g><g id="change1_5"><path d="M289.01,395.94c-9.71-10.29-45.37-48.06-42.01-98.62c3.71-55.68,52.72-96.58,63.92-105.93 c21.7-18.11,34.2-20.05,44.74-38.35c15.23-26.43,9.83-58.26,2.74-81.27c6.43,9.89,16.09,27.53,20.05,51.54 c1.78,10.78,5.72,34.7-3.81,59.68c-12.08,31.67-33.47,28.64-48.2,60.46c-15.76,34.04-10.69,66.45-9.13,74.88 c8.87,48.04,43.4,74.69,51.14,80.36c56.36,41.29,123.44,18.65,129.67,16.44c-11.94,8.47-47.19,31.11-96.8,30.13 C391.44,445.05,333.41,442.97,289.01,395.94z" fill="#750c48"/></g><g id="change1_6"><path d="M382.15,65.37c12.71,2.17,30.96,6.68,50.98,16.81c13,6.58,31.92,16.09,46.73,34.33 c22.1,27.22,23.64,59.74,24.66,81.27c2.08,44.12-11.93,55.48-1.83,88.58c3.35,10.99,8.76,27.89,24.66,40.18 c21.86,16.91,58.11,20.92,79.45,2.74c7.41-6.31,11.46-13.81,13.7-19.18c-1.19,8.83-4.2,22.2-12.78,35.61 c-22.8,35.62-76.61,58.84-117.8,38.35c-37.5-18.65-45.09-63.84-46.27-70.84c-3.21-19.13,1.08-27.07,8.28-68.63 c9.87-56.97,14.8-85.46,8.32-106.94C455.43,121.75,440.55,90.89,382.15,65.37z" fill="#750c48"/></g><g id="change1_7"><path d="M339.76,59.58c-2.84,10.62-8.52,25.82-21.08,39.13c-20.54,21.77-45.44,22.13-77.39,32.87 c-39.78,13.38-74.01,24.89-97.25,49.31c-33.53,35.24-39.94,93.64-26.48,139.44c25.47,86.65,116.88,110.28,120.94,111.26 c-19.1-14.32-63.09-51.63-78.02-113.04c-3.97-16.32-10.11-42.96-0.68-73.97c10.66-35.06,34.94-55.6,47.26-65.75 c50.88-41.92,95.03-27.43,120.11-64.55C339.39,96.2,340.79,75.32,339.76,59.58z" fill="#750c48"/></g></svg>